<svg width="26" height="22" viewBox="0 0 26 22" fill="none" xmlns="http://www.w3.org/2000/svg">
<g filter="url(#filter0_d)">
<path fill-rule="evenodd" clip-rule="evenodd" d="M16.6846 0.558749L16.6264 0.579656L16.6475 0.558749H16.6846ZM3.23149 2.76961C6.46298 0.445506 9.45823 0.557007 9.45823 0.557007L9.69976 0.792205C5.74546 1.72429 3.95254 3.46998 3.95254 3.46998C3.95254 3.46998 4.43206 3.23827 5.26946 2.8846C10.5953 0.814855 16.4113 0.964683 21.7954 3.58496C21.7954 3.58496 19.9989 1.95252 16.2879 0.90719L16.6158 0.588366C17.1288 0.590109 19.8438 0.684189 22.7491 2.78355C22.7491 2.78355 26 8.2715 26 15.0138C25.9806 14.9906 25.9024 15.0704 25.7582 15.2175C25.1046 15.8846 23.0956 17.9352 19.0698 18.0209C19.0698 18.0209 18.2377 17.0906 17.6454 16.2787C20.519 15.4633 21.5944 13.8326 21.5944 13.8326C20.9113 14.2579 20.2716 14.5579 19.7056 14.8234C19.4901 14.9245 19.2853 15.0206 19.0928 15.1166C18.0439 15.5728 16.9934 15.8028 15.9445 16.0324L15.8701 16.0487C11.1219 16.8102 8.31866 15.6708 5.77184 14.6356C5.59154 14.5623 5.41253 14.4895 5.2342 14.418L4.31218 13.9546C4.31218 13.9546 5.38581 15.5853 8.14483 16.4006C7.42026 17.2177 6.70274 18.1463 6.70274 18.1463C1.79116 18.0314 0 14.9999 0 14.9999C0 8.24711 3.23149 2.76961 3.23149 2.76961ZM17.0019 12.9075C18.2554 12.9075 19.2761 11.8622 19.2761 10.573C19.2761 9.29245 18.2607 8.24713 17.0019 8.24713V8.25236C15.7538 8.25236 14.7312 9.29419 14.7277 10.5834C14.7277 11.8622 15.7485 12.9075 17.0019 12.9075ZM11.1348 10.573C11.1348 11.8622 10.114 12.9075 8.86055 12.9075C7.60709 12.9075 6.58635 11.8622 6.58635 10.5834C6.58635 9.29419 7.60709 8.25236 8.86055 8.25236L8.86761 8.24713C10.1211 8.24713 11.1348 9.29245 11.1348 10.573Z" fill="currentColor"/>
</g>
<defs>
<filter id="filter0_d" x="0" y="0.556152" width="26" height="20.5902" filterUnits="userSpaceOnUse" color-interpolation-filters="sRGB">
<feFlood flood-opacity="0" result="BackgroundImageFix"/>
<feColorMatrix in="SourceAlpha" type="matrix" values="0 0 0 0 0 0 0 0 0 0 0 0 0 0 0 0 0 0 127 0"/>
<feOffset dy="3"/>
<feColorMatrix type="matrix" values="0 0 0 0 1 0 0 0 0 1 0 0 0 0 1 0 0 0 0.5 0"/>
<feBlend mode="normal" in2="BackgroundImageFix" result="effect1_dropShadow"/>
<feBlend mode="normal" in="SourceGraphic" in2="effect1_dropShadow" result="shape"/>
</filter>
</defs>
</svg>
