<svg viewBox="0 0 46 40" fill="none" xmlns="http://www.w3.org/2000/svg">
<path fill-rule="evenodd" clip-rule="evenodd" d="M42.5293 11.8343C44.363 12.8929 44.7645 15.1987 43.7943 16.8791L41.4513 20.9371C41.5311 20.9316 41.6115 20.9288 41.6924 20.9289C42.9071 20.9302 43.8471 21.5727 44.4327 22.5147C45.722 24.5888 44.6004 26.6617 43.3073 27.66C42.3724 28.3819 41.3646 29.0695 40.0424 29.9716C39.2098 30.5397 38.2525 31.1928 37.11 31.9933C34.0119 34.1639 29.993 35.036 25.7919 33.4397C24.8585 35.4102 23.2923 37.0347 21.317 38.1751C16.3711 41.0306 11.5062 40.2653 7.89338 37.734C6.75091 36.9335 5.79358 36.2804 4.96099 35.7123L4.96084 35.7122C3.63864 34.8101 2.63102 34.1226 1.6961 33.4008C0.403053 32.4024 -0.718556 30.3296 0.570737 28.2555C1.15635 27.3134 2.09631 26.6709 3.31102 26.6696C3.39193 26.6695 3.47233 26.6723 3.55216 26.6778L1.20913 22.6198C0.238963 20.9394 0.640473 18.6336 2.4741 17.575C2.80085 17.3863 3.13914 17.2569 3.48 17.181C3.30882 15.8023 3.88339 14.3561 5.22753 13.58C6.57168 12.804 8.11142 13.0295 9.21986 13.8671C9.45599 13.6099 9.73726 13.3816 10.064 13.193C11.8945 12.1361 14.0877 12.9367 15.0604 14.6112C15.2451 14.4434 15.4521 14.2914 15.6816 14.1589C17.5152 13.1002 19.7128 13.9054 20.683 15.5857L20.8444 15.8653L24.3204 9.84501C25.2906 8.16467 27.4882 7.35952 29.3218 8.41816C29.5513 8.55063 29.7583 8.70263 29.943 8.87049C30.9157 7.19601 33.1089 6.39541 34.9394 7.45224C35.2662 7.64089 35.5474 7.86913 35.7836 8.12638C36.892 7.28876 38.4317 7.06326 39.7759 7.8393C41.12 8.61534 41.6946 10.0615 41.5234 11.4403C41.8643 11.5162 42.2026 11.6456 42.5293 11.8343ZM21.9494 17.779L25.9778 10.8019C26.4811 9.93019 27.5499 9.60496 28.3649 10.0755C28.6029 10.2129 28.7929 10.4029 28.9302 10.6248C29.2631 11.163 29.2858 11.8888 28.9294 12.5061L26.2644 17.1221C26.1339 17.3481 26.2048 17.6367 26.425 17.7766C26.6588 17.925 26.9692 17.8488 27.1077 17.609L31.5954 9.83603C32.0987 8.96427 33.1675 8.63905 33.9825 9.10963C34.2205 9.247 34.4105 9.437 34.5478 9.65888C34.8807 10.1971 34.9034 10.9229 34.547 11.5402L31.1452 17.4324C31.0107 17.6652 31.0905 17.963 31.3234 18.0975C31.5563 18.2319 31.854 18.1521 31.9885 17.9192L36.4319 10.2231C36.4979 10.1087 36.5736 10.0038 36.6573 9.90881C37.2112 9.2797 38.1108 9.08783 38.819 9.49668C39.5272 9.90554 39.8108 10.7806 39.543 11.5749C39.5025 11.6948 39.4495 11.8129 39.3835 11.9272L35.0703 19.3979C34.9358 19.6307 35.0156 19.9285 35.2485 20.063C35.4814 20.1974 35.7792 20.1176 35.9136 19.8848L39.1853 14.2181C39.5417 13.6008 40.1816 13.2575 40.8142 13.2768C41.0749 13.2847 41.3345 13.3543 41.5724 13.4917C42.3875 13.9622 42.6402 15.0504 42.1369 15.9222L37.9499 23.1739C37.1697 22.6688 36.2087 22.2624 35.2298 22.1575C33.9772 22.0233 32.6763 22.3872 31.7594 23.6709C31.6058 23.8859 31.6556 24.1847 31.8706 24.3383C32.0856 24.4919 32.3845 24.4421 32.538 24.227C33.216 23.2779 34.1478 23.0039 35.1279 23.109C36.1326 23.2166 37.1655 23.7268 37.9101 24.3226C38.09 24.4665 38.3419 24.4595 38.5129 24.3187C38.5917 24.3051 38.6715 24.2756 38.7493 24.2273C38.8467 24.1669 38.9441 24.1066 39.0407 24.0471C39.263 23.91 39.4811 23.7765 39.6856 23.6527C39.7905 23.5892 39.8919 23.5283 39.9884 23.4707L40.0479 23.4353C41.3313 22.673 42.2244 22.5873 42.8073 23.5251C43.3903 24.4629 42.972 25.5011 42.1378 26.1452C41.2419 26.8369 40.3084 27.4735 39.0349 28.3419C38.2013 28.9103 37.2217 29.5783 36.0119 30.4259C33.3883 32.2641 30.0238 33.011 26.4396 31.6381C27.1235 28.9361 26.665 25.9467 24.9796 23.0272L21.9494 17.779ZM6.25417 29.9681C6.82172 30.3201 7.49282 29.6755 7.15888 29.0971L2.86651 21.6629C2.3632 20.7911 2.61593 19.703 3.431 19.2324C3.66893 19.095 3.92848 19.0255 4.18927 19.0175C4.82186 18.9982 5.46175 19.3415 5.81814 19.9588L9.08981 25.6255C9.22426 25.8584 9.52204 25.9382 9.75492 25.8037C9.98779 25.6692 10.0676 25.3715 9.93313 25.1386L5.61994 17.6679C5.55392 17.5536 5.50091 17.4355 5.46047 17.3156C5.19261 16.5213 5.47627 15.6463 6.18443 15.2374C6.89258 14.8286 7.79224 15.0204 8.34617 15.6495C8.4298 15.7445 8.50555 15.8495 8.57157 15.9638L13.0149 23.66C13.1494 23.8928 13.4472 23.9726 13.6801 23.8382C13.9129 23.7037 13.9927 23.406 13.8583 23.1731L10.4564 17.2809C10.1 16.6636 10.1227 15.9378 10.4557 15.3996C10.5929 15.1777 10.783 14.9877 11.0209 14.8504C11.836 14.3798 12.9047 14.705 13.408 15.5768L17.8958 23.3497C18.0342 23.5896 18.3446 23.6658 18.5784 23.5173C18.7987 23.3775 18.8695 23.0888 18.7391 22.8628L16.074 18.2468C15.7176 17.6295 15.7403 16.9037 16.0733 16.3655C16.2105 16.1436 16.4006 15.9536 16.6385 15.8163C17.4536 15.3457 18.5223 15.6709 19.0256 16.5427L23.3222 23.9841C26.3162 29.1704 24.6061 34.0663 20.3602 36.5177C16.1142 38.9691 12.0496 38.3092 8.99153 36.1666C7.78171 35.319 6.80238 34.6512 5.96873 34.0827L5.96855 34.0826C4.69507 33.2142 3.76156 32.5776 2.86565 31.8859C2.03145 31.2419 1.61313 30.2036 2.19609 29.2658C2.77905 28.328 3.67208 28.4137 4.95553 29.1761L5.01501 29.2115C5.11153 29.269 5.21289 29.3299 5.31783 29.3934C5.52231 29.5172 5.74038 29.6507 5.9627 29.7878C6.05931 29.8474 6.15672 29.9076 6.25417 29.9681Z" fill="currentColor"/>
<path fill-rule="evenodd" clip-rule="evenodd" d="M18.9163 0L26.0479 1.30517L20.015 11.2568L18.9163 0ZM17.7287 10.5146L10.1192 7.06396L14.9207 3.63215L17.7287 10.5146Z" fill="#EC5142"/>
</svg>
