<svg width="23" height="22" viewBox="0 0 23 22" fill="none" xmlns="http://www.w3.org/2000/svg">
<g filter="url(#filter0_d)">
<path d="M22.4175 2.48383C21.5839 2.84521 20.6956 3.08475 19.7695 3.20106C20.7222 2.63891 21.4494 1.75552 21.7913 0.690752C20.903 1.21414 19.9222 1.58383 18.877 1.79014C18.0335 0.902597 16.8314 0.352905 15.5199 0.352905C12.9756 0.352905 10.9271 2.39383 10.9271 4.89583C10.9271 5.25583 10.958 5.60198 11.0336 5.93152C7.21284 5.74737 3.832 3.93767 1.56082 1.18091C1.16431 1.86075 0.931728 2.63891 0.931728 3.4766C0.931728 5.04952 1.75137 6.44383 2.97313 7.25106C2.23475 7.23721 1.51038 7.02537 0.896701 6.69167C0.896701 6.70552 0.896701 6.72352 0.896701 6.74152C0.896701 8.9486 2.48975 10.7818 4.57878 11.2041C4.20469 11.3052 3.79697 11.3537 3.37384 11.3537C3.07961 11.3537 2.78258 11.3371 2.50376 11.2761C3.09922 13.0748 4.78895 14.3971 6.79812 14.44C5.2345 15.6488 3.24914 16.3771 1.09986 16.3771C0.722965 16.3771 0.361483 16.3604 0 16.3148C2.03579 17.6121 4.44848 18.3529 7.05032 18.3529C15.5073 18.3529 20.1309 11.4298 20.1309 5.42891C20.1309 5.22814 20.1239 5.03429 20.1141 4.84183C21.0263 4.20214 21.7927 3.40321 22.4175 2.48383Z" fill="currentColor"/>
</g>
<defs>
<filter id="filter0_d" x="0" y="0.352905" width="22.4175" height="21" filterUnits="userSpaceOnUse" color-interpolation-filters="sRGB">
<feFlood flood-opacity="0" result="BackgroundImageFix"/>
<feColorMatrix in="SourceAlpha" type="matrix" values="0 0 0 0 0 0 0 0 0 0 0 0 0 0 0 0 0 0 127 0"/>
<feOffset dy="3"/>
<feColorMatrix type="matrix" values="0 0 0 0 1 0 0 0 0 1 0 0 0 0 1 0 0 0 0.5 0"/>
<feBlend mode="normal" in2="BackgroundImageFix" result="effect1_dropShadow"/>
<feBlend mode="normal" in="SourceGraphic" in2="effect1_dropShadow" result="shape"/>
</filter>
</defs>
</svg>
