<svg viewBox="0 0 231 231" fill="currentColor" xmlns="http://www.w3.org/2000/svg">
<path fill-rule="evenodd" clip-rule="evenodd" d="M231 115.5C231 179.256 179.256 231 115.5 231C51.744 231 0 179.256 0 115.5C0 51.744 51.744 0 115.5 0C179.256 0 231 51.744 231 115.5ZM57.057 119.427L57.519 118.734L87.549 71.841C88.011 71.148 88.935 71.148 89.397 72.072C94.479 83.391 98.637 97.251 96.789 106.029C95.865 109.725 93.555 114.576 90.783 118.965C90.552 119.658 90.09 120.351 89.628 120.813C89.397 121.044 89.166 121.275 88.704 121.275H57.75C57.057 121.044 56.595 120.12 57.057 119.427ZM190.806 135.597V128.205C190.806 127.512 190.344 126.819 189.651 127.05L153.846 137.907C153.615 137.907 153.615 137.907 153.384 138.138C150.417 141.279 147.846 143.63 146.467 144.89C146.021 145.298 145.699 145.592 145.53 145.761C143.451 147.609 140.679 148.533 137.907 148.533H125.202V135.597H135.366C135.597 135.597 135.828 135.597 136.059 135.366L137.445 134.211C138.138 133.749 138.831 133.056 139.524 132.363C139.998 132.047 140.363 131.624 140.695 131.24C140.848 131.062 140.995 130.892 141.141 130.746C141.615 130.43 141.98 130.007 142.312 129.623C142.465 129.445 142.612 129.275 142.758 129.129C143.105 128.667 143.509 128.205 143.913 127.743C144.317 127.281 144.722 126.819 145.068 126.357C145.761 125.664 146.223 124.971 146.685 124.278C146.916 123.931 147.205 123.585 147.494 123.238C147.782 122.892 148.071 122.545 148.302 122.199C148.464 121.713 148.74 121.34 149.05 120.922C149.181 120.744 149.319 120.558 149.457 120.351L149.457 120.351C149.919 119.658 150.381 118.965 150.612 118.503L150.612 118.503C151.536 116.886 152.46 115.269 153.153 113.652C153.506 112.946 153.724 112.24 153.91 111.637C153.968 111.451 154.022 111.275 154.077 111.111C154.193 110.649 154.308 110.245 154.423 109.84C154.539 109.436 154.655 109.032 154.77 108.57C154.782 108.466 154.793 108.362 154.805 108.258C155.023 106.305 155.22 104.539 155.001 102.564C155.001 101.871 155.001 101.178 154.77 100.716C154.77 100.485 154.77 100.023 154.539 99.561C154.308 97.482 153.615 95.634 152.691 93.786C152.576 93.4395 152.402 93.093 152.229 92.7465C152.056 92.4 151.883 92.0535 151.767 91.707C151.305 91.014 150.901 90.321 150.497 89.6281C150.092 88.935 149.688 88.242 149.226 87.549C149.081 87.114 148.845 86.77 148.632 86.4599C148.506 86.276 148.388 86.104 148.302 85.932C147.956 85.47 147.551 84.9503 147.147 84.4305C146.743 83.9108 146.339 83.391 145.992 82.929C145.646 82.5825 145.357 82.1783 145.068 81.774C144.779 81.3698 144.491 80.9655 144.144 80.619C143.798 80.2725 143.509 79.926 143.22 79.5795C142.931 79.233 142.642 78.8865 142.296 78.54C139.986 75.999 137.676 73.689 135.597 71.841C135.448 71.5427 135.202 71.3406 134.923 71.1105C134.769 70.9843 134.606 70.8497 134.442 70.686C132.825 69.3 131.208 67.914 130.053 66.99C129.36 66.528 128.898 66.066 128.436 65.604C127.743 65.142 127.281 64.68 127.05 64.449C127.05 64.218 126.819 64.218 126.819 64.218L125.433 63.756V52.668C125.433 50.82 124.74 49.203 123.585 48.048C122.43 46.893 120.813 46.2 118.965 46.2C115.5 46.2 112.497 49.203 112.497 52.899V60.522L111.804 60.291L109.956 59.829L108.339 59.367L95.634 55.902C95.172 55.671 94.71 56.364 94.941 56.826L97.02 60.522L97.713 61.908C97.8285 62.2545 98.0017 62.601 98.175 62.9475C98.3482 63.294 98.5215 63.6405 98.637 63.987C98.7525 64.3335 98.9258 64.6222 99.099 64.911C99.2722 65.1997 99.4455 65.4885 99.561 65.835C100.254 67.2208 100.947 68.8376 101.64 70.4544L101.64 70.455L103.026 73.92C104.181 76.692 105.336 79.926 106.26 83.16C106.647 83.934 106.872 84.8702 107.071 85.6969C107.109 85.857 107.147 86.013 107.184 86.163L107.415 86.625C107.877 88.242 108.108 89.628 108.339 91.245C108.57 92.169 108.801 93.324 108.801 94.248C108.801 94.8255 108.859 95.403 108.917 95.9805C108.974 96.558 109.032 97.1355 109.032 97.713C109.263 98.868 109.263 100.023 109.263 100.947C109.263 103.719 109.032 106.26 108.57 108.57L107.877 110.649C107.791 110.907 107.673 111.197 107.547 111.507C107.334 112.03 107.098 112.61 106.953 113.19C106.722 113.883 106.491 114.345 106.26 114.807L106.26 114.807C105.105 117.579 103.719 120.582 102.102 123.123C99.792 127.05 97.713 130.284 96.096 132.594C95.865 133.056 95.634 133.287 95.403 133.518C94.941 134.211 95.403 135.135 96.327 135.135H112.728V148.071H96.096C91.707 148.071 87.549 145.761 85.47 141.603C84.546 139.524 84.084 137.214 84.315 135.135C84.315 134.673 83.853 133.98 83.16 133.98H49.434C48.972 133.98 48.51 134.442 48.51 134.904V135.597C48.51 157.08 65.835 174.405 87.087 174.405H147.147C158.286 174.405 164.674 164.204 170.985 154.127C172.788 151.248 174.585 148.379 176.484 145.761C179.718 141.141 187.803 137.445 190.113 136.521C190.575 136.29 190.806 136.059 190.806 135.597Z" fill="currentColor"/>
</svg>