<svg viewBox="0 0 24 22" fill="none" xmlns="http://www.w3.org/2000/svg">
<path fill-rule="evenodd" clip-rule="evenodd" d="M17.6941 18.1412C16.0109 19.2577 13.989 19.7608 11.9728 19.5636C9.95673 19.3665 8.0731 18.4816 6.64246 17.0613C6.25051 16.6722 5.61736 16.6745 5.22825 17.0664C4.83915 17.4583 4.84145 18.0915 5.23339 18.4806C6.99224 20.2267 9.30537 21.3124 11.7782 21.5541C14.251 21.7959 16.7323 21.1792 18.7997 19.8078C20.8671 18.4364 22.3931 16.3946 23.1159 14.0292C23.8387 11.6638 23.7129 9.12256 22.7601 6.83912C21.8075 4.55582 20.0875 2.67276 17.8951 1.50933C15.7027 0.345974 13.1726 -0.0264474 10.7355 0.454826C8.29826 0.936111 6.10307 2.24174 4.52472 4.15104C3.31038 5.62003 2.51916 7.37631 2.21874 9.23413H0.301648C0.0504201 9.23413 -0.0903162 9.52157 0.0648852 9.7177L3.01767 13.4491C3.13822 13.6014 3.37065 13.6014 3.49119 13.4491L6.44398 9.7177C6.59918 9.52157 6.45844 9.23413 6.20722 9.23413H4.25092C4.52967 7.84468 5.14912 6.53474 6.06622 5.42533C7.34939 3.87308 9.13619 2.80926 11.1229 2.41693C13.1098 2.02459 15.1719 2.32844 16.9576 3.276C18.7431 4.22349 20.1409 5.75539 20.9144 7.60924C21.6878 9.46295 21.7898 11.5251 21.2032 13.4448C20.6166 15.3646 19.3771 17.0248 17.6941 18.1412Z" fill="currentColor"/>
<path d="M12.8313 3.9742L12.8401 3.95973V3.98863L17.0259 10.8565L12.8313 13.3045V13.3096L12.8269 13.307L12.8225 13.3096V13.3045L8.63672 10.8565L8.64891 10.8509L12.8225 3.98869V3.95973L12.8313 3.9742Z" fill="currentColor"/>
<path d="M12.8225 17.4964L8.63672 11.6595L12.8269 14.1275L17.0259 11.6595L12.8313 17.4964V17.5086L12.8269 17.5025L12.8225 17.5086V17.4964Z" fill="currentColor"/>
</svg>
