<svg  viewBox="0 0 65 80" fill="none" xmlns="http://www.w3.org/2000/svg">
<path d="M29.3195 50.3482C26.1527 49.4409 22.5775 48.4166 19.0023 46.9972V47.0061C11.4552 44.0124 5.57526 38.0877 3.26273 31.168C1.17429 24.9027 2.10647 18.2609 5.96964 11.9507C10.6754 4.26023 21.2879 -0.418604 33.0388 0.0295604C45.4081 0.504614 55.8862 6.68928 61.2283 16.6116L57.2844 18.7359C52.6504 10.1133 43.7947 4.93248 32.8685 4.52016C22.8744 4.12578 13.6064 8.06962 9.79697 14.2991C6.65085 19.444 5.86208 24.7861 7.52029 29.7518C9.38466 35.3449 14.422 40.3643 20.6605 42.8382C24.0575 44.1827 27.5532 45.1866 30.6456 46.065C38.3988 48.2789 45.1033 50.1971 44.2608 56.4893C43.8933 59.2589 41.7242 61.3295 38.3181 62.163C37.1619 62.4499 35.8891 62.5843 34.5356 62.5843C28.351 62.5843 20.6156 59.6802 16.3402 54.2753L20.3557 52.1152C24.8105 57.1526 32.9312 58.8735 37.2515 57.8158C38.3361 57.547 39.6716 57.0002 39.815 55.8977C40.1287 53.5583 36.0683 52.2765 29.4176 50.3763L29.3195 50.3482Z" fill="currentColor"/>
<path d="M49.9971 22.6529C46.1608 16.8895 39.6445 13.3938 32.3125 13.2414L32.3394 13.2325C26.2623 13.098 20.8216 15.3568 18.5091 18.9779C16.7523 21.7297 16.3937 24.5083 17.4245 27.2242C19.0289 31.4459 23.7884 35.0581 30.1434 36.8686L30.1492 36.8703C39.6697 39.5866 57.3911 44.6427 53.914 58.748C52.2558 65.4705 45.9098 70.0686 36.9286 71.0367C35.8082 71.1532 34.6519 71.216 33.4867 71.216C23.9677 71.216 13.2566 67.1735 8.18337 58.6674L12.1362 56.5341C16.8867 64.2515 27.9384 67.4962 36.4356 66.573C43.4628 65.8111 48.3658 62.4857 49.5489 57.6724C51.3057 50.5377 45.5154 45.9126 28.8975 41.171C21.1891 38.9661 15.3271 34.35 13.2207 28.8107C11.6791 24.7593 12.19 20.5286 14.7086 16.5668C17.8906 11.5832 24.6668 8.57156 32.4111 8.75083C41.3744 8.93906 49.3338 13.3221 53.9499 20.5196L49.9971 22.6529Z" fill="currentColor"/>
<path d="M61.6226 43.9138C57.6429 37.4692 49.8179 32.8621 39.5908 30.944C30.8516 29.3037 27.5352 26.3906 26.9526 24.9206C26.7823 24.4814 26.8271 24.1587 27.1139 23.7644C27.9296 22.644 29.8029 21.9448 32.0168 21.9269H32.1065C35.8262 21.9269 39.5729 23.6837 42.477 26.7133L46.5374 24.5262C42.6921 20.0267 37.359 17.3825 31.99 17.4452C28.2792 17.4721 25.1779 18.8166 23.4928 21.1292C22.3006 22.7784 22.0497 24.7055 22.7847 26.5788C24.3622 30.5406 30.1794 33.7405 38.7662 35.3539C47.604 37.0121 54.5505 40.9918 57.8132 46.2801C60.1884 50.1343 60.6725 54.625 59.2294 59.6534C56.137 70.481 44.5386 74.9089 34.7148 75.4467C23.4928 76.0562 9.42041 71.7538 3.94384 60.9709L0 63.0952C4.63402 71.9599 15.874 80 32.1782 80C33.0924 80 34.0157 79.9731 34.9658 79.9193C49.4594 79.1306 60.4125 71.8344 63.5407 60.8813C65.3154 54.6877 64.6522 48.8257 61.6226 43.9228V43.9138Z" fill="currentColor"/>
<path d="M43.8396 28.3266H43.8844L43.8575 28.3446L43.8396 28.3266Z" fill="currentColor"/>
</svg>
